<svg xmlns="http://www.w3.org/2000/svg" xmlns:xlink="http://www.w3.org/1999/xlink" width="53.729" height="53.73" viewBox="0 0 53.729 53.73">
  <defs>
    <filter id="Icon_metro-cross" x="0" y="0" width="53.729" height="53.73" filterUnits="userSpaceOnUse">
      <feOffset dy="3" input="SourceAlpha"/>
      <feGaussianBlur stdDeviation="3" result="blur"/>
      <feFlood flood-opacity="0.161"/>
      <feComposite operator="in" in2="blur"/>
      <feComposite in="SourceGraphic"/>
    </filter>
  </defs>
  <g transform="matrix(1, 0, 0, 1, 0, 0)" filter="url(#Icon_metro-cross)">
    <path id="Icon_metro-cross-2" data-name="Icon metro-cross" d="M37.975,30.632h0L27.135,19.793,37.975,8.954h0a1.119,1.119,0,0,0,0-1.579L32.854,2.254a1.119,1.119,0,0,0-1.579,0h0L20.435,13.094,9.6,2.254h0a1.119,1.119,0,0,0-1.578,0L2.9,7.375a1.119,1.119,0,0,0,0,1.578h0l10.839,10.84L2.9,30.632h0a1.119,1.119,0,0,0,0,1.578l5.121,5.121a1.119,1.119,0,0,0,1.579,0h0L20.435,26.492,31.276,37.332h0a1.119,1.119,0,0,0,1.578,0l5.12-5.12a1.119,1.119,0,0,0,0-1.578Z" transform="translate(6.43 4.07)" fill="#fbff9f"/>
  </g>
</svg>
