<svg id="Calque_1" data-name="Calque 1" xmlns="http://www.w3.org/2000/svg" xmlns:xlink="http://www.w3.org/1999/xlink" viewBox="0 0 179.15 200.67"><defs><style>.cls-1,.cls-2{fill:none;}.cls-2{stroke:#ea1cb5;stroke-miterlimit:10;stroke-width:8px;}.cls-3{opacity:0.2;fill:url(#Nouveau_motif_3);}</style><pattern id="Nouveau_motif_3" data-name="Nouveau motif 3" width="179.15" height="200.67" patternUnits="userSpaceOnUse" viewBox="0 0 179.15 200.67"><rect class="cls-1" width="179.15" height="200.67"/><polyline class="cls-2" points="133.13 242.78 133.93 223.41 193.48 247.04 175.72 217.34 225.17 214.32 207.8 182.81"/><polyline class="cls-2" points="133.13 242.78 133.93 223.41 193.48 247.04 175.72 217.34 225.17 214.32 207.8 182.81"/><polyline class="cls-2" points="-46.02 242.78 -45.23 223.41 14.33 247.04 -3.43 217.34 46.02 214.32 28.65 182.81"/><polyline class="cls-2" points="-46.02 242.78 -45.23 223.41 14.33 247.04 -3.43 217.34 46.02 214.32 28.65 182.81"/><polyline class="cls-2" points="133.13 242.72 133.93 223.34 193.48 246.97 175.72 217.27 225.17 214.25 207.8 182.74"/><polyline class="cls-2" points="133.13 42.12 133.93 22.74 193.48 46.37 175.72 16.67 225.17 13.65 207.8 -17.86"/><polyline class="cls-2" points="16.69 80.03 44.49 80.58 23.9 150.69 62.34 129.34 77.53 187.12 118.64 166.18"/><polyline class="cls-2" points="61.71 12.04 80.02 5.64 80.02 69.71 101.07 42.25 122.12 87.1 145 59.33"/><polyline class="cls-2" points="-46.02 242.72 -45.23 223.34 14.33 246.97 -3.43 217.27 46.02 214.25 28.65 182.74"/><polyline class="cls-2" points="133.13 42.12 133.93 22.74 193.48 46.37 175.72 16.67 225.17 13.65 207.8 -17.86"/><polyline class="cls-2" points="177.83 180.71 159.52 187.12 159.52 123.04 138.47 150.5 117.42 105.65 94.54 133.42"/><polyline class="cls-2" points="-46.02 42.12 -45.23 22.74 14.33 46.37 -3.43 16.67 46.02 13.65 28.65 -17.86"/><polyline class="cls-2" points="-46.02 42.12 -45.23 22.74 14.33 46.37 -3.43 16.67 46.02 13.65 28.65 -17.86"/><polyline class="cls-2" points="133.13 42.05 133.93 22.67 193.48 46.3 175.72 16.6 225.17 13.58 207.8 -17.93"/><polyline class="cls-2" points="-46.02 42.05 -45.23 22.67 14.33 46.3 -3.43 16.6 46.02 13.58 28.65 -17.93"/></pattern></defs><rect class="cls-3" x="-13.57" y="-12.14" width="205.79" height="224.64"/></svg>