<svg xmlns="http://www.w3.org/2000/svg" width="24.053" height="21.047" viewBox="0 0 24.053 21.047">
  <path id="Icon_awesome-camera" data-name="Icon awesome-camera" d="M24.053,7.512v13.53A2.256,2.256,0,0,1,21.8,23.3H2.255A2.256,2.256,0,0,1,0,21.041V7.512A2.256,2.256,0,0,1,2.255,5.257H6.389l.578-1.546A2.252,2.252,0,0,1,9.076,2.25h5.9a2.252,2.252,0,0,1,2.109,1.461l.583,1.546H21.8A2.256,2.256,0,0,1,24.053,7.512Zm-6.389,6.765a5.637,5.637,0,1,0-5.637,5.637A5.642,5.642,0,0,0,17.664,14.277Zm-1.5,0a4.134,4.134,0,1,1-4.134-4.134A4.14,4.14,0,0,1,16.161,14.277Z" transform="translate(0 -2.25)" fill="#ed8239"/>
</svg>
