<svg xmlns="http://www.w3.org/2000/svg" viewBox="0 0 220.84 57.32"><defs><style>.cls-1{fill:#89ad8c;}.cls-2{fill:#aad4af;}</style></defs><g id="Calque_2" data-name="Calque 2"><path class="cls-1" d="M101.44,27.46l0-15.7V7.83a5.24,5.24,0,0,1,2.25-4.66,10.4,10.4,0,0,1,5.8-1.94c1.29,0,76-.13,77.8-.1,7.13.14,8.12,4.6,8.09,8.93h.19l2.72,0a.23.23,0,0,1,.12.43L193,15.77a.23.23,0,0,1-.26,0l-5.22-5.22a.23.23,0,0,1,.13-.42l3-.06,0-1.62c-.06-2.3-2.2-2.37-3.83-2.38l-77,0a2.7,2.7,0,0,0-1.12.22,3,3,0,0,0-1.86,3.12V19.63"/><path class="cls-1" d="M195.17,30.9V50.44a5.37,5.37,0,0,1-2.2,4.75,10.42,10.42,0,0,1-5.81,1.94c-1.28,0-76,.13-77.79.1-7.14-.14-8.12-4.6-8.1-8.93h-.18l-2.72,0a.24.24,0,0,1-.13-.43l5.33-5.26a.24.24,0,0,1,.27,0l5.22,5.22a.23.23,0,0,1-.14.42l-3,.06,0,1.62c.07,2.3,2.21,2.37,3.84,2.38l77,0A2.7,2.7,0,0,0,188,52.1,3,3,0,0,0,189.81,49l-.11-11.59"/><path class="cls-1" d="M1.67,37.62V16.35A2.17,2.17,0,0,1,4.07,14H5a2.17,2.17,0,0,1,2.4,2.4v8h10v-8A2.16,2.16,0,0,1,19.73,14h.9a2.17,2.17,0,0,1,2.4,2.4V37.62A2.16,2.16,0,0,1,20.63,40h-.9a2.16,2.16,0,0,1-2.39-2.39V29.33h-10v8.29A2.16,2.16,0,0,1,5,40h-.9A2.16,2.16,0,0,1,1.67,37.62Z"/><path class="cls-1" d="M27.31,29.72c0-6.33,4.3-10.63,10.55-10.63,6,0,9.82,3.67,10.19,9.48.1,1.59-.74,2.4-2.4,2.4H32.77c.1,3.37,2.16,5.33,5.51,5.33a6.17,6.17,0,0,0,4.26-1.47c.89-.74,1.44-1.23,2.69-.93l.49.12c1.65.4,1.92,1.32.89,2.62C44.86,39,41.91,40.35,38,40.35,31.54,40.35,27.31,36.18,27.31,29.72ZM43,27.39a4.64,4.64,0,0,0-5-4.5,4.76,4.76,0,0,0-5.13,4.5Z"/><path class="cls-1" d="M55.74,44.16l1.83-4.24L50.16,22.2c-.68-1.64.08-2.76,1.83-2.76h1a2.7,2.7,0,0,1,2.74,1.94L60.49,34l4.77-12.65A2.7,2.7,0,0,1,68,19.44h.93c1.8,0,2.57,1.12,1.89,2.76L61.45,44.82a2.74,2.74,0,0,1-2.81,1.85h-1C55.87,46.67,55.1,45.65,55.74,44.16Z"/><path class="cls-1" d="M73.66,27.06c0-8.85,5.75-13.38,12.46-13.38,4.51,0,8.95,2,11,6.78.68,1.59,0,2.66-1.54,2.93l-.85.14a2.33,2.33,0,0,1-2.87-1.22,6.3,6.3,0,0,0-5.75-3.48c-3.95,0-6.58,3.18-6.58,8.23s2.6,8.16,6.58,8.16a6.18,6.18,0,0,0,5.76-3.57,2.43,2.43,0,0,1,2.91-1.26l.85.15c1.65.28,2.13,1.55,1.17,3.63-2.05,4.39-6.36,6.2-10.67,6.2C79.36,40.37,73.66,36.12,73.66,27.06Z"/><path class="cls-1" d="M103.79,40a2.16,2.16,0,0,1-2.4-2.39V15.13a2.16,2.16,0,0,1,2.4-2.4h.67a2.16,2.16,0,0,1,2.4,2.4v7.6A6.69,6.69,0,0,1,113.22,19c5.12,0,8,2.63,8,9.65v8.93a2.16,2.16,0,0,1-2.4,2.39h-.67a2.16,2.16,0,0,1-2.39-2.39V29.19c0-4-1.41-5.52-4.47-5.52s-4.42,1.86-4.42,5.84v8.11a2.16,2.16,0,0,1-2.4,2.39Z"/><path class="cls-1" d="M124.76,29.72c0-6.91,3.86-10.63,9-10.63A7.08,7.08,0,0,1,140.45,23V21.52c0-1.33.88-2.09,2.4-2.09h.67a2.16,2.16,0,0,1,2.4,2.39V37.58a2.16,2.16,0,0,1-2.4,2.4h-.67c-1.51,0-2.4-.76-2.4-2V36.52c-1,2.45-3.81,3.88-6.67,3.88C128.66,40.4,124.76,36.64,124.76,29.72Zm15.86,0c0-3.8-2.11-6.16-5.22-6.16s-5.19,2.35-5.19,6.16,2.1,6.19,5.24,6.19S140.62,33.54,140.62,29.71Z"/><path class="cls-1" d="M170.46,28.69v8.93a2.16,2.16,0,0,1-2.4,2.39h-.67a2.16,2.16,0,0,1-2.4-2.39V29.19c0-3.78-1.39-5.52-4.46-5.52s-4.42,2-4.42,5.84v8.11a2.16,2.16,0,0,1-2.4,2.39H153a2.16,2.16,0,0,1-2.4-2.39V21.82a2.16,2.16,0,0,1,2.4-2.39h.67a2.14,2.14,0,0,1,2.4,2.32v1c.9-2.12,3.26-3.67,6.36-3.67C168,19.12,170.46,22.19,170.46,28.69Z"/><path class="cls-1" d="M189.7,37.39v-2c-1,2.24-3.67,3.59-6.55,3.59-5.16,0-9.15-3.49-9.15-10s3.94-10,9.08-10c3.22,0,5.69,1.51,6.75,3.65v-.93c0-1.57.74-2.38,2.27-2.38h.67a2.15,2.15,0,0,1,2.39,2.39V36.38m-5.34-7.33c0-3.73-2.11-5.94-5.2-5.94s-5.18,2.21-5.18,5.94,2.13,6,5.21,6S189.83,32.83,189.83,29.05Z"/><path class="cls-1" d="M199.17,29.72c0-6.33,4.31-10.63,10.56-10.63,6,0,9.81,3.67,10.18,9.48.11,1.59-.74,2.4-2.4,2.4H204.63c.1,3.37,2.16,5.33,5.51,5.33a6.15,6.15,0,0,0,4.26-1.47c.89-.74,1.45-1.23,2.69-.93l.5.12c1.64.4,1.92,1.32.88,2.62-1.74,2.38-4.7,3.71-8.58,3.71C203.4,40.35,199.17,36.18,199.17,29.72Zm15.69-2.33a4.63,4.63,0,0,0-5-4.5,4.77,4.77,0,0,0-5.13,4.5h10.13Z"/><path class="cls-2" d="M99.77,26.34l0-15.7V6.71A5.28,5.28,0,0,1,102,2,10.35,10.35,0,0,1,107.77.11c1.28,0,76-.14,77.79-.1,7.14.13,8.13,4.59,8.1,8.93h.18l2.72,0a.24.24,0,0,1,.13.43l-5.33,5.25a.24.24,0,0,1-.26,0l-5.22-5.22A.24.24,0,0,1,186,9l3-.05,0-1.63C188.89,5,186.74,5,185.12,4.93h-77a2.91,2.91,0,0,0-1.13.21,3,3,0,0,0-1.86,3.13V18.5"/><path class="cls-2" d="M193.49,29.77V49.32a5.37,5.37,0,0,1-2.2,4.75,10.4,10.4,0,0,1-5.8,1.94c-1.29,0-76,.13-77.79.1-7.14-.14-8.13-4.6-8.1-8.94h-.18l-2.73,0a.23.23,0,0,1-.12-.43l5.33-5.25a.24.24,0,0,1,.26,0l5.22,5.22a.24.24,0,0,1-.13.43l-3,.06,0,1.62c.06,2.29,2.21,2.36,3.83,2.38h77a2.82,2.82,0,0,0,1.12-.21,3,3,0,0,0,1.86-3.13L188,36.26"/><path class="cls-2" d="M0,36.49V15.23a2.16,2.16,0,0,1,2.4-2.4h.9a2.16,2.16,0,0,1,2.39,2.4v8h10v-8a2.16,2.16,0,0,1,2.4-2.4H19a2.16,2.16,0,0,1,2.39,2.4V36.49A2.16,2.16,0,0,1,19,38.89h-.9a2.16,2.16,0,0,1-2.4-2.4V28.21h-10v8.28a2.16,2.16,0,0,1-2.39,2.4H2.4A2.16,2.16,0,0,1,0,36.49Z"/><path class="cls-2" d="M25.63,28.6C25.63,22.26,29.94,18,36.19,18c6,0,9.81,3.67,10.19,9.48.1,1.59-.75,2.39-2.4,2.39H31.1c.09,3.38,2.16,5.33,5.51,5.33a6.1,6.1,0,0,0,4.25-1.47c.9-.74,1.45-1.23,2.7-.93l.49.12c1.64.4,1.92,1.32.89,2.63-1.75,2.38-4.7,3.71-8.58,3.71C29.87,39.23,25.63,35.05,25.63,28.6Zm15.7-2.33a4.65,4.65,0,0,0-5-4.5,4.77,4.77,0,0,0-5.13,4.5Z"/><path class="cls-2" d="M54.06,43l1.83-4.25-7.4-17.72c-.69-1.64.08-2.76,1.83-2.76h1a2.7,2.7,0,0,1,2.74,2l4.79,12.65,4.77-12.65a2.7,2.7,0,0,1,2.74-2h.92c1.8,0,2.57,1.13,1.89,2.77L59.77,43.7A2.74,2.74,0,0,1,57,45.55H56C54.2,45.55,53.42,44.53,54.06,43Z"/><path class="cls-2" d="M72,25.93c0-8.84,5.75-13.37,12.45-13.37,4.51,0,9,2,11,6.77.68,1.6,0,2.66-1.53,2.93l-.85.15a2.31,2.31,0,0,1-2.87-1.23,6.31,6.31,0,0,0-5.75-3.47c-4,0-6.58,3.18-6.58,8.22s2.59,8.17,6.58,8.17a6.19,6.19,0,0,0,5.76-3.58,2.42,2.42,0,0,1,2.9-1.25l.86.14c1.65.28,2.13,1.56,1.16,3.63-2,4.4-6.35,6.21-10.67,6.21C77.69,39.25,72,35,72,25.93Z"/><path class="cls-2" d="M102.12,38.89a2.16,2.16,0,0,1-2.4-2.4V14a2.16,2.16,0,0,1,2.4-2.39h.67A2.16,2.16,0,0,1,105.18,14v7.6a6.72,6.72,0,0,1,6.36-3.68c5.13,0,8,2.63,8,9.64v8.93a2.16,2.16,0,0,1-2.4,2.4h-.67a2.16,2.16,0,0,1-2.4-2.4V28.07c0-3.95-1.4-5.53-4.47-5.53s-4.42,1.87-4.42,5.84v8.11a2.16,2.16,0,0,1-2.39,2.4Z"/><path class="cls-2" d="M123.08,28.6c0-6.92,3.87-10.63,9-10.63a7.09,7.09,0,0,1,6.7,3.94V20.4c0-1.33.88-2.1,2.4-2.1h.67a2.16,2.16,0,0,1,2.4,2.4V36.46a2.16,2.16,0,0,1-2.4,2.39h-.67c-1.51,0-2.4-.75-2.4-2.05V35.4c-1,2.45-3.82,3.87-6.67,3.87C127,39.27,123.08,35.52,123.08,28.6Zm15.87,0c0-3.79-2.12-6.16-5.23-6.16s-5.18,2.36-5.18,6.16,2.1,6.2,5.23,6.2S139,32.41,139,28.58Z"/><path class="cls-2" d="M168.78,27.56v8.93a2.16,2.16,0,0,1-2.39,2.4h-.67a2.16,2.16,0,0,1-2.4-2.4V28.07c0-3.78-1.39-5.53-4.47-5.53s-4.42,2-4.42,5.84v8.11a2.16,2.16,0,0,1-2.4,2.4h-.67a2.16,2.16,0,0,1-2.39-2.4V20.7a2.16,2.16,0,0,1,2.39-2.4H152a2.14,2.14,0,0,1,2.4,2.33v1c.91-2.13,3.26-3.68,6.36-3.68C166.32,18,168.78,21.06,168.78,27.56Z"/><path class="cls-2" d="M188,36.26V34.31c-1,2.23-3.68,3.59-6.56,3.59-5.16,0-9.14-3.49-9.14-10s3.93-10,9.08-10c3.22,0,5.69,1.51,6.75,3.64v-.93c0-1.56.75-2.38,2.28-2.38h.67a2.15,2.15,0,0,1,2.38,2.4V35.26m-5.33-7.33c0-3.74-2.11-5.95-5.2-5.95s-5.19,2.21-5.19,5.95,2.14,6,5.21,6S188.16,31.71,188.16,27.93Z"/><path class="cls-2" d="M197.49,28.6c0-6.34,4.31-10.63,10.56-10.63,6,0,9.81,3.67,10.19,9.48.1,1.59-.75,2.39-2.4,2.39H203c.1,3.38,2.16,5.33,5.51,5.33a6.1,6.1,0,0,0,4.25-1.47c.9-.74,1.45-1.23,2.7-.93l.49.12c1.64.4,1.92,1.32.89,2.63-1.75,2.38-4.7,3.71-8.58,3.71C201.73,39.23,197.49,35.05,197.49,28.6Zm15.7-2.33a4.65,4.65,0,0,0-5-4.5,4.77,4.77,0,0,0-5.13,4.5Z"/></g></svg>