<svg xmlns="http://www.w3.org/2000/svg" viewBox="0 0 73.71 70.73"><defs><style>.cls-1{fill:#89ad8c;}.cls-2{fill:#aad4af;}</style></defs><g id="Calque_2" data-name="Calque 2"><path class="cls-1" d="M7,18V11.39a9.31,9.31,0,0,1,4.21-7.88C16.47,0,20.93.27,20.93.27,23.07.27,52.32,0,55.28,0c13,0,13.47,4.39,13.48,14h4.55a.41.41,0,0,1,.25.73l-8.51,8.5a14.35,14.35,0,0,1-2.78,0L56,14.6c-.15-.18-.19-.6.19-.61H61l0-1.78c-.1-4.78-5-3.83-10.91-4l-26.31.06a21.59,21.59,0,0,0-4.11.36c-1.8.81-3.29,3.29-3.11,6V36.55h0c0,2.53-1.25,4.74-7.08,4.74C5.71,41.29,7,39.08,7,36.55Z"/><path class="cls-1" d="M68.43,37.54c0,9,.77,13.9-.85,18.65C67,58,72.64,69.44,71,70.25c-5,2.49-7.63-5.62-10.57-5a74.93,74.93,0,0,1-9.06,1.3l-29.06.11A14.57,14.57,0,0,1,7.73,52.81v-.15a.32.32,0,0,0-.32-.31l-4.75-.1a.34.34,0,0,1-.18-.61L9,43.33a5.82,5.82,0,0,1,3.48.06l9.08,8.25a.33.33,0,0,1-.19.6l-4.79.06a.35.35,0,0,0-.33.4c.76,4.21,3,5.89,6.6,5.93l28.93-.5C59.71,58,59.57,50,59.57,50V36.82l.28-6.43c0-2.29-1.47-4,.33-4.27,6.06-.94,8.25,1.57,8.25,4.67Z"/><path class="cls-2" d="M4.67,18V11.39A9.34,9.34,0,0,1,8.88,3.51C14.13,0,18.59.27,18.59.27,20.73.27,50,0,53,0,66,0,66.41,4.39,66.42,14H71a.41.41,0,0,1,.25.73l-8.5,8.5a.41.41,0,0,1-.45,0L53.65,14.6c-.16-.18-.2-.6.18-.61h4.81l0-1.78c-.11-4.78-5-3.83-10.92-4l-26.31.06a21.42,21.42,0,0,0-4.1.36c-1.81.81-3.3,3.29-3.12,6V36.55h0c0,2.53-1,4.74-4.74,4.74s-4.75-2.21-4.75-4.74Z"/><path class="cls-2" d="M66.09,37.54c0,9,.77,13.9-.85,18.65C64.61,58,70,69,68.68,70.25c-1.57,1.46-7.64-5.62-10.58-5a74.46,74.46,0,0,1-9.05,1.3L20,66.66A14.56,14.56,0,0,1,5.4,52.81v-.15a.32.32,0,0,0-.31-.31l-4.76-.1a.34.34,0,0,1-.18-.61L9,43.33c.57-.35.57-.3,1.15.06l9.08,8.25a.33.33,0,0,1-.2.6l-4.79.06a.34.34,0,0,0-.32.4c.75,4.21,3,5.89,6.59,5.93l28.93-.5C57.37,58,57.23,50,57.23,50V36.82l.28-6.43c0-2.29.92-3.75,2.67-4.27a4.74,4.74,0,0,1,5.91,4.67Z"/></g></svg>