<svg xmlns="http://www.w3.org/2000/svg" width="184.046" height="43.909" viewBox="0 0 184.046 43.909">
  <g id="Groupe_134" data-name="Groupe 134" transform="translate(-77.067 -365.809)">
    <g id="Groupe_132" data-name="Groupe 132" transform="translate(78.787 372.421)">
      <path id="Tracé_50" data-name="Tracé 50" d="M80.474,381.857a2.691,2.691,0,0,1,5.382,0v6.695h9.779v-6.695a2.691,2.691,0,0,1,5.382,0v19.1a2.691,2.691,0,0,1-5.382,0v-7.876H85.856v7.876a2.691,2.691,0,0,1-5.382,0Z" transform="translate(-80.474 -379.035)" fill="#d8832c"/>
      <path id="Tracé_51" data-name="Tracé 51" d="M133.235,401.882a4.134,4.134,0,0,0,4.431,4.365c3.61,0,3.61-2.363,5.546-2.363a1.979,1.979,0,0,1,1.969,1.871c0,2.888-4.627,4.233-7.515,4.233-6.695,0-9.222-4.529-9.222-8.7,0-5.579,3.38-9.32,9.058-9.32,5.513,0,8.663,3.905,8.663,7.843,0,1.641-.492,2.067-2.1,2.067Zm8.4-2.757a4.1,4.1,0,0,0-4.037-3.807c-2.4,0-3.839,1.477-4.365,3.807Z" transform="translate(-104.226 -385.375)" fill="#d8832c"/>
      <path id="Tracé_52" data-name="Tracé 52" d="M174.54,404.967h.065l2.921-10.862c.328-1.215.984-2.133,2.3-2.133a2.339,2.339,0,0,1,2.461,2.166,4.673,4.673,0,0,1-.361,1.51l-5.546,15.719c-1.149,3.282-2.461,4.988-5.48,4.988-2.133,0-3.019-1.05-3.019-2.2,0-1.28.919-1.936,2.2-1.936h.492c.624,0,1.313-.033,1.674-1.51l-4.988-14.21a7.417,7.417,0,0,1-.591-2.232,2.29,2.29,0,0,1,2.33-2.3,2.4,2.4,0,0,1,2.461,1.8Z" transform="translate(-123.15 -385.375)" fill="#d8832c"/>
      <path id="Tracé_53" data-name="Tracé 53" d="M213.381,378.906c6.169,0,9.549,3.873,9.549,6.169A2.2,2.2,0,0,1,220.5,387.5c-3.118,0-2.2-4.267-7.121-4.267-3.38,0-6.17,2.921-6.17,8.04,0,4.3,1.707,8.04,6.366,8.04,4.234,0,4.135-4.529,6.728-4.529,1.313,0,2.625.755,2.625,2.067,0,3.413-4.135,6.793-9.353,6.793-7.384,0-11.748-4.233-11.748-12.372C201.829,384.617,205.767,378.906,213.381,378.906Z" transform="translate(-140.561 -378.906)" fill="#d8832c"/>
      <path id="Tracé_54" data-name="Tracé 54" d="M304.166,404.934c0,2,.493,2.462.493,3.216a2.006,2.006,0,0,1-2.166,1.838,2.589,2.589,0,0,1-2.823-2.789,8.252,8.252,0,0,1-6.563,2.789c-2.724,0-5.415-1.87-5.415-4.89,0-3.971,3.02-5.087,6.7-5.514l2.921-.328c1.149-.131,2.067-.394,2.067-1.772s-1.411-1.969-3.019-1.969c-3.544,0-3.643,2.625-5.546,2.625a1.907,1.907,0,0,1-2.035-1.838c0-1.9,2.691-4.332,7.614-4.332,4.594,0,7.777,1.477,7.777,4.922Zm-4.791-3.446a4.3,4.3,0,0,1-2.067.755l-1.739.263c-2,.3-3.085.919-3.085,2.363,0,1.083,1.017,1.969,2.658,1.969,2.625,0,4.233-1.707,4.233-3.479Z" transform="translate(-183.075 -385.375)" fill="#d8832c"/>
      <path id="Tracé_55" data-name="Tracé 55" d="M328.513,394.368c0-1.444.656-2.4,2.166-2.4s2.166.952,2.166,2.4v.624h.066a6.871,6.871,0,0,1,5.808-3.019c2.888,0,6.038,1.443,6.038,6.3v9.32a2.4,2.4,0,1,1-4.791,0v-8.368c0-1.936-.952-3.314-3.019-3.314a3.721,3.721,0,0,0-3.643,3.774v7.909a2.4,2.4,0,1,1-4.791,0Z" transform="translate(-203.287 -385.375)" fill="#d8832c"/>
      <path id="Tracé_56" data-name="Tracé 56" d="M411.3,401.882a4.134,4.134,0,0,0,4.43,4.365c3.61,0,3.61-2.363,5.546-2.363a1.979,1.979,0,0,1,1.969,1.871c0,2.888-4.627,4.233-7.515,4.233-6.695,0-9.221-4.529-9.221-8.7,0-5.579,3.38-9.32,9.057-9.32,5.514,0,8.664,3.905,8.664,7.843,0,1.641-.492,2.067-2.1,2.067Zm8.4-2.757a4.1,4.1,0,0,0-4.036-3.807c-2.4,0-3.84,1.477-4.365,3.807Z" transform="translate(-241.907 -385.375)" fill="#d8832c"/>
    </g>
    <g id="Groupe_133" data-name="Groupe 133" transform="translate(77.067 365.809)">
      <path id="Tracé_57" data-name="Tracé 57" d="M248.838,374.88v-3.316a4.707,4.707,0,0,1,2.126-3.978,8.764,8.764,0,0,1,4.9-1.637c1.083,0,61.24-.108,62.733-.08,6.023.115,6.857,3.881,6.835,7.541h.154l2.3.015a.2.2,0,0,1,.105.363l-4.338,4.277a.623.623,0,0,1-.415.182,11.644,11.644,0,0,1-1.5-.026l-2.871-4.407a.2.2,0,0,1,.11-.361l2.5-.046-.022-1.372c-.053-1.937-1.862-1.992-3.235-2.007l-62.073-.018a2.307,2.307,0,0,0-.946.184,2.547,2.547,0,0,0-1.572,2.635v8.647h.066a6.443,6.443,0,0,1,5.349-2.527c2.888,0,6.039,1.444,6.039,6.3v9.32a2.4,2.4,0,0,1-4.792,0V386.2c0-1.936-.952-3.314-3.019-3.314a3.721,3.721,0,0,0-3.643,3.774v7.909a2.4,2.4,0,0,1-4.792,0Z" transform="translate(-162.117 -365.836)" fill="#d8832c"/>
      <path id="Tracé_58" data-name="Tracé 58" d="M322.055,407.906c-.032,9.687.594,14.321-8.605,14.645H253.39a7.354,7.354,0,0,1-7.366-6.995l0-.072a.166.166,0,0,0-.16-.16l-2.145.011a.169.169,0,0,1-.091-.306l3.316-4.314a1.162,1.162,0,0,1,1.007-.281,1.382,1.382,0,0,1,.791.406l4.162,4.128a.169.169,0,0,1-.1.3l-2.291.028a.174.174,0,0,0-.166.2c.383,2.128,1.523,2.976,3.331,3l59.994-.2c3.981-.064,3.791-4.07,3.791-4.07V406.56h-.066a5.9,5.9,0,0,1-4.627,2.3c-5.054,0-7.68-3.282-7.68-8.007,0-6.2,3.479-9.123,7.515-9.123a5.4,5.4,0,0,1,5.054,2.855h.066v-.591a1.981,1.981,0,0,1,1.349-2.157,2.392,2.392,0,0,1,2.982,2.358Zm-8.368-2.592c2.133,0,3.774-1.411,3.774-4.824,0-3.479-1.313-5.021-3.544-5.021-3.085,0-4.037,2.265-4.037,5.218C309.879,402.885,310.963,405.313,313.686,405.313Z" transform="translate(-159.501 -378.642)" fill="#d8832c"/>
      <path id="Tracé_59" data-name="Tracé 59" d="M77.067,381.612a2.691,2.691,0,1,1,5.382,0v6.694h9.779v-6.694a2.691,2.691,0,1,1,5.382,0v19.1a2.691,2.691,0,0,1-5.382,0v-7.876H82.449v7.876a2.691,2.691,0,0,1-5.382,0Z" transform="translate(-77.067 -372.301)" fill="#ffb162"/>
      <path id="Tracé_60" data-name="Tracé 60" d="M129.828,401.638A4.134,4.134,0,0,0,134.259,406c3.61,0,3.61-2.363,5.546-2.363a1.979,1.979,0,0,1,1.969,1.871c0,2.888-4.627,4.233-7.515,4.233-6.695,0-9.222-4.529-9.222-8.7,0-5.579,3.38-9.32,9.058-9.32,5.513,0,8.663,3.905,8.663,7.844,0,1.641-.492,2.067-2.1,2.067Zm8.4-2.757a4.1,4.1,0,0,0-4.037-3.807c-2.4,0-3.839,1.477-4.365,3.807Z" transform="translate(-100.819 -378.642)" fill="#ffb162"/>
      <path id="Tracé_61" data-name="Tracé 61" d="M171.133,404.723h.066l2.921-10.863c.328-1.214.985-2.133,2.3-2.133a2.339,2.339,0,0,1,2.461,2.166,4.686,4.686,0,0,1-.361,1.51l-5.546,15.72c-1.149,3.282-2.461,4.988-5.48,4.988-2.133,0-3.019-1.05-3.019-2.2,0-1.28.919-1.936,2.2-1.936h.492c.624,0,1.313-.033,1.674-1.51l-4.988-14.21a7.4,7.4,0,0,1-.591-2.232,2.29,2.29,0,0,1,2.33-2.3,2.4,2.4,0,0,1,2.461,1.8Z" transform="translate(-119.743 -378.642)" fill="#ffb162"/>
      <path id="Tracé_62" data-name="Tracé 62" d="M209.974,378.662c6.169,0,9.549,3.872,9.549,6.169a2.2,2.2,0,0,1-2.428,2.428c-3.118,0-2.2-4.266-7.121-4.266-3.381,0-6.17,2.921-6.17,8.04,0,4.3,1.706,8.04,6.366,8.04,4.234,0,4.135-4.529,6.728-4.529,1.313,0,2.625.755,2.625,2.067,0,3.413-4.135,6.793-9.353,6.793-7.384,0-11.748-4.234-11.748-12.373C198.422,384.372,202.36,378.662,209.974,378.662Z" transform="translate(-137.154 -372.173)" fill="#ffb162"/>
      <path id="Tracé_63" data-name="Tracé 63" d="M245.676,374.825v-3.316a4.707,4.707,0,0,1,2.126-3.978,8.763,8.763,0,0,1,4.9-1.637c1.083,0,61.24-.108,62.733-.08,6.022.115,6.857,3.881,6.835,7.541h.153l2.3.015a.2.2,0,0,1,.105.363l-4.5,4.436a.2.2,0,0,1-.224,0l-4.405-4.407a.2.2,0,0,1,.11-.36l2.5-.046-.022-1.372c-.052-1.937-1.862-1.993-3.235-2.007l-62.072-.018a2.306,2.306,0,0,0-.946.184,2.548,2.548,0,0,0-1.572,2.635v8.647h.066a6.444,6.444,0,0,1,5.35-2.527c2.888,0,6.038,1.444,6.038,6.3v9.32a2.4,2.4,0,1,1-4.791,0v-8.368c0-1.937-.952-3.315-3.02-3.315a3.721,3.721,0,0,0-3.643,3.774v7.909a2.4,2.4,0,1,1-4.791,0Z" transform="translate(-160.551 -365.809)" fill="#ffb162"/>
      <path id="Tracé_64" data-name="Tracé 64" d="M300.759,404.69c0,2,.493,2.461.493,3.216a2.006,2.006,0,0,1-2.166,1.838,2.589,2.589,0,0,1-2.823-2.789,8.252,8.252,0,0,1-6.563,2.789c-2.724,0-5.415-1.87-5.415-4.89,0-3.971,3.02-5.086,6.695-5.513l2.921-.328c1.149-.132,2.067-.394,2.067-1.773s-1.411-1.969-3.019-1.969c-3.544,0-3.643,2.625-5.546,2.625a1.907,1.907,0,0,1-2.035-1.837c0-1.9,2.691-4.332,7.614-4.332,4.594,0,7.777,1.477,7.777,4.923Zm-4.791-3.446A4.3,4.3,0,0,1,293.9,402l-1.739.263c-2,.3-3.085.919-3.085,2.363,0,1.083,1.018,1.969,2.659,1.969,2.625,0,4.233-1.706,4.233-3.479Z" transform="translate(-179.668 -378.642)" fill="#ffb162"/>
      <path id="Tracé_65" data-name="Tracé 65" d="M325.1,394.123c0-1.444.656-2.4,2.166-2.4s2.166.952,2.166,2.4v.624h.065a6.872,6.872,0,0,1,5.809-3.019c2.888,0,6.038,1.444,6.038,6.3v9.32a2.4,2.4,0,0,1-4.791,0V398.98c0-1.937-.952-3.315-3.019-3.315a3.721,3.721,0,0,0-3.643,3.774v7.909a2.4,2.4,0,0,1-4.792,0Z" transform="translate(-199.88 -378.642)" fill="#ffb162"/>
      <path id="Tracé_66" data-name="Tracé 66" d="M320.009,407.906c-.033,9.687.594,14.321-8.605,14.645H251.344a7.355,7.355,0,0,1-7.366-6.995l0-.072a.165.165,0,0,0-.159-.16l-2.146.011a.169.169,0,0,1-.091-.306l4.349-4.314c.24-.24.313-.218.6-.036l4.326,4.29a.169.169,0,0,1-.1.3l-2.29.028a.174.174,0,0,0-.166.2c.383,2.128,1.523,2.975,3.331,2.995l59.994-.2c3.981-.064,3.791-4.07,3.791-4.07V406.56h-.066a5.9,5.9,0,0,1-4.627,2.3c-5.054,0-7.68-3.282-7.68-8.007,0-6.2,3.479-9.123,7.515-9.123a5.4,5.4,0,0,1,5.054,2.855h.066v-.591a1.981,1.981,0,0,1,1.35-2.157,2.392,2.392,0,0,1,2.982,2.358Zm-8.368-2.592c2.133,0,3.774-1.411,3.774-4.824,0-3.479-1.313-5.021-3.544-5.021-3.085,0-4.037,2.265-4.037,5.218C307.833,402.885,308.916,405.313,311.64,405.313Z" transform="translate(-158.488 -378.642)" fill="#ffb162"/>
      <path id="Tracé_67" data-name="Tracé 67" d="M407.9,401.638a4.134,4.134,0,0,0,4.43,4.365c3.61,0,3.61-2.363,5.546-2.363a1.979,1.979,0,0,1,1.969,1.871c0,2.888-4.627,4.233-7.515,4.233-6.694,0-9.222-4.529-9.222-8.7,0-5.579,3.381-9.32,9.058-9.32,5.514,0,8.664,3.905,8.664,7.844,0,1.641-.492,2.067-2.1,2.067Zm8.4-2.757a4.1,4.1,0,0,0-4.036-3.807c-2.4,0-3.839,1.477-4.365,3.807Z" transform="translate(-238.5 -378.642)" fill="#ffb162"/>
    </g>
  </g>
</svg>
