<svg xmlns="http://www.w3.org/2000/svg" width="32.531" height="32.531" viewBox="0 0 32.531 32.531">
  <path id="Icon_material-account-circle" data-name="Icon material-account-circle" d="M18.765,3A15.766,15.766,0,1,0,34.53,18.765,15.766,15.766,0,0,0,18.765,3Zm0,4.729a4.723,4.723,0,1,1-3.346,1.383,4.729,4.729,0,0,1,3.346-1.383Zm0,22.387A11.352,11.352,0,0,1,9.306,25.04c.048-3.137,6.306-4.856,9.459-4.856,3.137,0,9.412,1.718,9.459,4.856a11.352,11.352,0,0,1-9.459,5.077Z" transform="translate(-2.499 -2.5)" fill="none" stroke="#ed8239" stroke-width="1"/>
</svg>
