<svg xmlns="http://www.w3.org/2000/svg" width="203.185" height="23" viewBox="0 0 203.185 23">
  <g id="Groupe_135" data-name="Groupe 135" transform="translate(-57.336 -489)">
    <text id="Recherche" transform="translate(96.521 506)" fill="#ed8239" font-size="22" font-family="HelveticaRoundedLTStd-Black, Helvetica Rounded LT Std" font-weight="800" letter-spacing="0.071em"><tspan x="0" y="0">RECHERCHE</tspan></text>
    <path id="Icon_awesome-search" data-name="Icon awesome-search" d="M17.754,15.564l-3.505-3.505a.843.843,0,0,0-.6-.246h-.573a7.309,7.309,0,1,0-1.266,1.266v.573a.843.843,0,0,0,.246.6l3.505,3.505a.84.84,0,0,0,1.192,0l1-1a.848.848,0,0,0,0-1.2ZM7.312,11.812a4.5,4.5,0,1,1,4.5-4.5,4.5,4.5,0,0,1-4.5,4.5Z" transform="translate(57.832 489.499)" fill="#ed8239" stroke="#ed8239" stroke-width="1"/>
  </g>
</svg>
